<svg width="203" height="60" viewBox="0 0 203 60" fill="none" xmlns="http://www.w3.org/2000/svg">
<path d="M16.3032 50.9072C16.3032 52.0329 16.0981 52.974 15.688 53.7305C15.2778 54.4824 14.6831 55.0498 13.9038 55.4326C13.1291 55.8109 12.188 56 11.0806 56H8.3667V46.0059H11.3813C12.3976 46.0059 13.2726 46.1927 14.0063 46.5664C14.7401 46.9355 15.3052 47.4847 15.7017 48.2139C16.1027 48.9385 16.3032 49.8363 16.3032 50.9072ZM15.0796 50.9482C15.0796 50.0505 14.9292 49.3099 14.6284 48.7266C14.3322 48.1432 13.8947 47.7103 13.3159 47.4277C12.7417 47.1406 12.0376 46.9971 11.2036 46.9971H9.52881V55.002H10.9438C12.3201 55.002 13.3524 54.6624 14.0405 53.9834C14.7332 53.3044 15.0796 52.2926 15.0796 50.9482ZM21.7583 48.3711C21.9087 48.3711 22.0659 48.3802 22.23 48.3984C22.394 48.4121 22.5399 48.4326 22.6675 48.46L22.5239 49.5127C22.4009 49.4808 22.2642 49.4557 22.1138 49.4375C21.9634 49.4193 21.8221 49.4102 21.6899 49.4102C21.3892 49.4102 21.1043 49.4717 20.8354 49.5947C20.5711 49.7132 20.3387 49.8864 20.1382 50.1143C19.9377 50.3376 19.7804 50.6087 19.6665 50.9277C19.5526 51.2422 19.4956 51.5931 19.4956 51.9805V56H18.354V48.5078H19.2974L19.4204 49.8887H19.4683C19.6232 49.6107 19.8101 49.3577 20.0288 49.1299C20.2476 48.8975 20.5005 48.7129 20.7876 48.5762C21.0793 48.4395 21.4028 48.3711 21.7583 48.3711ZM23.9116 55.2891C23.9116 54.9701 23.9891 54.7445 24.144 54.6123C24.299 54.4756 24.4881 54.4072 24.7114 54.4072C24.9438 54.4072 25.1398 54.4756 25.2993 54.6123C25.4588 54.7445 25.5386 54.9701 25.5386 55.2891C25.5386 55.6035 25.4588 55.8337 25.2993 55.9795C25.1398 56.1208 24.9438 56.1914 24.7114 56.1914C24.4881 56.1914 24.299 56.1208 24.144 55.9795C23.9891 55.8337 23.9116 55.6035 23.9116 55.2891ZM35.9634 56L32.6069 47.1543H32.5522C32.5705 47.3411 32.5864 47.569 32.6001 47.8379C32.6138 48.1068 32.6252 48.4007 32.6343 48.7197C32.6434 49.0342 32.6479 49.3555 32.6479 49.6836V56H31.5679V46.0059H33.2905L36.4556 54.3184H36.5034L39.7163 46.0059H41.4253V56H40.2769V49.6016C40.2769 49.3053 40.2814 49.0091 40.2905 48.7129C40.2996 48.4121 40.311 48.1296 40.3247 47.8652C40.3384 47.5964 40.3521 47.3639 40.3657 47.168H40.311L36.9136 56H35.9634ZM45.1235 48.5078V56H43.9888V48.5078H45.1235ZM44.5698 45.7051C44.7567 45.7051 44.9162 45.7666 45.0483 45.8896C45.1851 46.0081 45.2534 46.195 45.2534 46.4502C45.2534 46.7008 45.1851 46.8877 45.0483 47.0107C44.9162 47.1338 44.7567 47.1953 44.5698 47.1953C44.3739 47.1953 44.2098 47.1338 44.0776 47.0107C43.95 46.8877 43.8862 46.7008 43.8862 46.4502C43.8862 46.195 43.95 46.0081 44.0776 45.8896C44.2098 45.7666 44.3739 45.7051 44.5698 45.7051ZM50.5308 56.1367C49.8563 56.1367 49.2616 55.9977 48.7466 55.7197C48.2316 55.4417 47.8306 55.0179 47.5435 54.4482C47.2563 53.8786 47.1128 53.1608 47.1128 52.2949C47.1128 51.388 47.2632 50.6475 47.564 50.0732C47.8693 49.4945 48.2886 49.0661 48.8218 48.7881C49.355 48.5101 49.9611 48.3711 50.6401 48.3711C51.0138 48.3711 51.3739 48.4098 51.7202 48.4873C52.0711 48.5602 52.3582 48.6536 52.5815 48.7676L52.2397 49.7178C52.0119 49.6266 51.7476 49.5446 51.4468 49.4717C51.1506 49.3988 50.8726 49.3623 50.6128 49.3623C50.0933 49.3623 49.6603 49.474 49.314 49.6973C48.9722 49.9206 48.7147 50.2487 48.5415 50.6816C48.3729 51.1146 48.2886 51.6478 48.2886 52.2812C48.2886 52.8874 48.3706 53.4046 48.5347 53.833C48.7033 54.2614 48.9517 54.5895 49.2798 54.8174C49.6125 55.0407 50.0272 55.1523 50.5239 55.1523C50.9204 55.1523 51.2782 55.1113 51.5972 55.0293C51.9162 54.9427 52.2056 54.8424 52.4653 54.7285V55.7402C52.2147 55.8678 51.9344 55.9658 51.6245 56.0342C51.3192 56.1025 50.9546 56.1367 50.5308 56.1367ZM55.3774 45.3633V48.542C55.3774 48.7243 55.3729 48.9089 55.3638 49.0957C55.3547 49.278 55.3387 49.4466 55.3159 49.6016H55.3911C55.5461 49.3372 55.742 49.1162 55.979 48.9385C56.2205 48.7562 56.494 48.6195 56.7993 48.5283C57.1047 48.4326 57.4282 48.3848 57.77 48.3848C58.3716 48.3848 58.8729 48.4805 59.2739 48.6719C59.6795 48.8633 59.9826 49.1595 60.1831 49.5605C60.3882 49.9616 60.4907 50.4811 60.4907 51.1191V56H59.3696V51.1943C59.3696 50.57 59.2261 50.1029 58.939 49.793C58.6564 49.4831 58.2212 49.3281 57.6333 49.3281C57.0773 49.3281 56.633 49.4352 56.3003 49.6494C55.9722 49.859 55.7352 50.1689 55.5894 50.5791C55.4481 50.9893 55.3774 51.4906 55.3774 52.083V56H54.2427V45.3633H55.3774ZM65.7134 48.3711C66.3514 48.3711 66.8983 48.5124 67.354 48.7949C67.8097 49.0775 68.1584 49.474 68.3999 49.9844C68.6414 50.4902 68.7622 51.0827 68.7622 51.7617V52.4658H63.5874C63.6011 53.3454 63.8198 54.0153 64.2437 54.4756C64.6675 54.9359 65.2645 55.166 66.0347 55.166C66.5086 55.166 66.9279 55.1227 67.2925 55.0361C67.6571 54.9495 68.0353 54.8219 68.4272 54.6533V55.6514C68.049 55.82 67.673 55.943 67.2993 56.0205C66.9302 56.098 66.4927 56.1367 65.9868 56.1367C65.2668 56.1367 64.6379 55.9909 64.1001 55.6992C63.5669 55.403 63.1522 54.9701 62.856 54.4004C62.5597 53.8307 62.4116 53.1335 62.4116 52.3086C62.4116 51.502 62.5461 50.8047 62.8149 50.2168C63.0884 49.6243 63.4712 49.1686 63.9634 48.8496C64.4601 48.5306 65.0435 48.3711 65.7134 48.3711ZM65.6997 49.3008C65.0936 49.3008 64.6105 49.499 64.2505 49.8955C63.8905 50.292 63.6763 50.8457 63.6079 51.5566H67.5728C67.5682 51.11 67.4976 50.7181 67.3608 50.3809C67.2287 50.0391 67.0259 49.7747 66.7524 49.5879C66.479 49.3965 66.1281 49.3008 65.6997 49.3008ZM71.8315 56H70.6899V45.3633H71.8315V56ZM84.3071 56L83.0767 52.8281H79.0708L77.8472 56H76.6714L80.5815 45.9648H81.6274L85.5103 56H84.3071ZM82.728 51.7959L81.5591 48.6445C81.5317 48.5625 81.4862 48.4281 81.4224 48.2412C81.3631 48.0544 81.3016 47.8607 81.2378 47.6602C81.174 47.4596 81.1216 47.2979 81.0806 47.1748C81.035 47.3617 80.9849 47.5485 80.9302 47.7354C80.88 47.9176 80.8299 48.0885 80.7798 48.248C80.7297 48.403 80.6864 48.5352 80.6499 48.6445L79.4604 51.7959H82.728ZM89.3931 56.1367C88.4451 56.1367 87.6932 55.8132 87.1372 55.166C86.5858 54.5189 86.3101 53.5573 86.3101 52.2812C86.3101 50.9915 86.5926 50.0186 87.1577 49.3623C87.7228 48.7015 88.4748 48.3711 89.4136 48.3711C89.8101 48.3711 90.1564 48.4235 90.4526 48.5283C90.7489 48.6331 91.0041 48.7744 91.2183 48.9521C91.4325 49.1253 91.6125 49.3236 91.7583 49.5469H91.8403C91.8221 49.4056 91.8039 49.2119 91.7856 48.9658C91.7674 48.7197 91.7583 48.5192 91.7583 48.3643V45.3633H92.8931V56H91.9771L91.8062 54.9336H91.7583C91.617 55.1569 91.437 55.3597 91.2183 55.542C91.0041 55.7243 90.7466 55.8701 90.4458 55.9795C90.1496 56.0843 89.7987 56.1367 89.3931 56.1367ZM89.5708 55.1934C90.3729 55.1934 90.9403 54.9655 91.2729 54.5098C91.6056 54.054 91.772 53.3773 91.772 52.4795V52.2744C91.772 51.3219 91.6125 50.5905 91.2935 50.0801C90.979 49.5697 90.4048 49.3145 89.5708 49.3145C88.8735 49.3145 88.3517 49.5833 88.0054 50.1211C87.659 50.6543 87.4858 51.3835 87.4858 52.3086C87.4858 53.2292 87.6567 53.9401 87.9985 54.4414C88.3449 54.9427 88.869 55.1934 89.5708 55.1934ZM96.4341 48.5078V56H95.2993V48.5078H96.4341ZM95.8804 45.7051C96.0672 45.7051 96.2267 45.7666 96.3589 45.8896C96.4956 46.0081 96.564 46.195 96.564 46.4502C96.564 46.7008 96.4956 46.8877 96.3589 47.0107C96.2267 47.1338 96.0672 47.1953 95.8804 47.1953C95.6844 47.1953 95.5203 47.1338 95.3882 47.0107C95.2606 46.8877 95.1968 46.7008 95.1968 46.4502C95.1968 46.195 95.2606 46.0081 95.3882 45.8896C95.5203 45.7666 95.6844 45.7051 95.8804 45.7051ZM99.9751 45.3633V48.0225C99.9751 48.3278 99.966 48.624 99.9478 48.9111C99.9341 49.1982 99.9227 49.4215 99.9136 49.5811H99.9751C100.18 49.2438 100.476 48.959 100.864 48.7266C101.251 48.4941 101.746 48.3779 102.347 48.3779C103.286 48.3779 104.033 48.7038 104.589 49.3555C105.15 50.0026 105.43 50.9665 105.43 52.2471C105.43 53.0902 105.303 53.8011 105.047 54.3799C104.792 54.9587 104.432 55.3962 103.967 55.6924C103.502 55.9886 102.953 56.1367 102.32 56.1367C101.727 56.1367 101.24 56.0273 100.857 55.8086C100.479 55.5853 100.187 55.3141 99.9819 54.9951H99.8931L99.6606 56H98.8403V45.3633H99.9751ZM102.163 49.3281C101.62 49.3281 101.19 49.4352 100.871 49.6494C100.552 49.859 100.321 50.1781 100.18 50.6064C100.043 51.0303 99.9751 51.568 99.9751 52.2197V52.2812C99.9751 53.2246 100.132 53.9469 100.447 54.4482C100.761 54.945 101.333 55.1934 102.163 55.1934C102.86 55.1934 103.382 54.9382 103.728 54.4277C104.079 53.9173 104.254 53.1882 104.254 52.2402C104.254 51.2741 104.081 50.5472 103.735 50.0596C103.393 49.5719 102.869 49.3281 102.163 49.3281Z" fill="#F6FFF8"/>
<path d="M29.5112 23.6836C29.5112 25.8841 29.2378 27.8893 28.6909 29.6992C28.144 31.4961 27.3107 33.0456 26.1909 34.3477C25.0841 35.6497 23.6779 36.6523 21.9722 37.3555C20.2664 38.0456 18.2482 38.3906 15.9175 38.3906C13.5868 38.3906 11.5685 38.0456 9.86279 37.3555C8.15706 36.6523 6.7443 35.6497 5.62451 34.3477C4.51774 33.0456 3.69092 31.4896 3.14404 29.6797C2.59717 27.8698 2.32373 25.8581 2.32373 23.6445C2.32373 20.6888 2.8055 18.1172 3.76904 15.9297C4.74561 13.7292 6.243 12.0234 8.26123 10.8125C10.2795 9.60156 12.8446 8.99609 15.9565 8.99609C19.0555 8.99609 21.6011 9.60156 23.5933 10.8125C25.5985 12.0234 27.0828 13.7292 28.0464 15.9297C29.0229 18.1302 29.5112 20.7148 29.5112 23.6836ZM8.67139 23.6836C8.67139 25.6758 8.91878 27.3945 9.41357 28.8398C9.92139 30.2721 10.7091 31.3789 11.7769 32.1602C12.8446 32.9284 14.2248 33.3125 15.9175 33.3125C17.6362 33.3125 19.0295 32.9284 20.0972 32.1602C21.1649 31.3789 21.9396 30.2721 22.4214 28.8398C22.9162 27.3945 23.1636 25.6758 23.1636 23.6836C23.1636 20.6888 22.6037 18.332 21.4839 16.6133C20.3641 14.8945 18.5216 14.0352 15.9565 14.0352C14.2508 14.0352 12.8576 14.4258 11.7769 15.207C10.7091 15.9753 9.92139 17.082 9.41357 18.5273C8.91878 19.9596 8.67139 21.6784 8.67139 23.6836ZM48.7479 15.7539C49.0474 15.7539 49.3925 15.7734 49.7831 15.8125C50.1867 15.8385 50.5123 15.8776 50.7597 15.9297L50.3104 21.5156C50.1151 21.4505 49.8352 21.4049 49.4706 21.3789C49.119 21.3398 48.8131 21.3203 48.5526 21.3203C47.7844 21.3203 47.0357 21.418 46.3065 21.6133C45.5904 21.8086 44.9459 22.1276 44.3729 22.5703C43.8 23 43.3443 23.5729 43.0058 24.2891C42.6802 24.9922 42.5175 25.8581 42.5175 26.8867V38H36.5604V16.1641H41.0722L41.9511 19.8359H42.244C42.6737 19.0938 43.2076 18.4167 43.8456 17.8047C44.4966 17.1797 45.2323 16.6849 46.0526 16.3203C46.886 15.9427 47.7844 15.7539 48.7479 15.7539ZM65.2698 15.7148C68.1995 15.7148 70.4456 16.3529 72.0081 17.6289C73.5706 18.9049 74.3519 20.8451 74.3519 23.4492V38H70.1917L69.0394 35.0312H68.8831C68.2581 35.8125 67.6201 36.4505 66.969 36.9453C66.318 37.4401 65.5693 37.8047 64.7229 38.0391C63.8766 38.2734 62.8479 38.3906 61.637 38.3906C60.3479 38.3906 59.1891 38.1432 58.1604 37.6484C57.1448 37.1536 56.344 36.3984 55.7581 35.3828C55.1722 34.3542 54.8792 33.0521 54.8792 31.4766C54.8792 29.1589 55.693 27.4531 57.3206 26.3594C58.9482 25.2526 61.3896 24.6406 64.6448 24.5234L68.4339 24.4062V23.4492C68.4339 22.3034 68.1344 21.4635 67.5354 20.9297C66.9365 20.3958 66.1032 20.1289 65.0354 20.1289C63.9808 20.1289 62.9456 20.2786 61.93 20.5781C60.9144 20.8776 59.8987 21.2552 58.8831 21.7109L56.9104 17.6875C58.0693 17.0755 59.3649 16.5938 60.7972 16.2422C62.2425 15.8906 63.7334 15.7148 65.2698 15.7148ZM68.4339 27.8828L66.1292 27.9609C64.2021 28.013 62.861 28.3581 62.1058 28.9961C61.3636 29.6341 60.9925 30.474 60.9925 31.5156C60.9925 32.4271 61.2594 33.0781 61.7933 33.4688C62.3271 33.8464 63.0237 34.0352 63.8831 34.0352C65.1591 34.0352 66.2334 33.6576 67.1058 32.9023C67.9912 32.1471 68.4339 31.0729 68.4339 29.6797V27.8828ZM94.5065 15.7539C96.8373 15.7539 98.7123 16.3919 100.132 17.668C101.551 18.931 102.26 20.9622 102.26 23.7617V38H96.3034V25.2461C96.3034 23.6836 96.017 22.5052 95.444 21.7109C94.8842 20.9167 93.9987 20.5195 92.7878 20.5195C90.9649 20.5195 89.7214 21.138 89.0573 22.375C88.3933 23.612 88.0612 25.3958 88.0612 27.7266V38H82.1042V16.1641H86.655L87.4558 18.957H87.7878C88.2565 18.2018 88.836 17.5898 89.5261 17.1211C90.2292 16.6523 91.0039 16.3073 91.8503 16.0859C92.7097 15.8646 93.5951 15.7539 94.5065 15.7539ZM116.38 47.6094C113.333 47.6094 111.002 47.0755 109.388 46.0078C107.786 44.9531 106.985 43.4688 106.985 41.5547C106.985 40.2396 107.396 39.1393 108.216 38.2539C109.036 37.3685 110.241 36.737 111.829 36.3594C111.217 36.099 110.683 35.6758 110.228 35.0898C109.772 34.4909 109.544 33.8594 109.544 33.1953C109.544 32.362 109.785 31.6719 110.267 31.125C110.748 30.5651 111.445 30.0182 112.357 29.4844C111.211 28.9896 110.299 28.1953 109.622 27.1016C108.958 26.0078 108.626 24.7188 108.626 23.2344C108.626 21.6458 108.971 20.2982 109.661 19.1914C110.364 18.0716 111.38 17.2188 112.708 16.6328C114.049 16.0469 115.677 15.7539 117.591 15.7539C117.995 15.7539 118.463 15.7799 118.997 15.832C119.531 15.8841 120.019 15.9427 120.462 16.0078C120.918 16.0729 121.224 16.125 121.38 16.1641H128.997V19.1914L125.579 20.0703C125.892 20.5521 126.126 21.0664 126.282 21.6133C126.439 22.1602 126.517 22.7396 126.517 23.3516C126.517 25.6953 125.696 27.5247 124.056 28.8398C122.428 30.1419 120.163 30.793 117.259 30.793C116.569 30.7539 115.918 30.7018 115.306 30.6367C115.006 30.8711 114.778 31.1185 114.622 31.3789C114.466 31.6393 114.388 31.9128 114.388 32.1992C114.388 32.4857 114.505 32.7266 114.739 32.9219C114.987 33.1042 115.351 33.2474 115.833 33.3516C116.328 33.4427 116.94 33.4883 117.669 33.4883H121.38C123.776 33.4883 125.599 34.0026 126.849 35.0312C128.112 36.0599 128.743 37.5703 128.743 39.5625C128.743 42.1146 127.676 44.0938 125.54 45.5C123.418 46.9062 120.364 47.6094 116.38 47.6094ZM116.634 43.7227C118.053 43.7227 119.271 43.5859 120.286 43.3125C121.315 43.0521 122.103 42.6745 122.65 42.1797C123.196 41.6979 123.47 41.1185 123.47 40.4414C123.47 39.8945 123.307 39.4583 122.982 39.1328C122.669 38.8203 122.187 38.599 121.536 38.4688C120.898 38.3385 120.078 38.2734 119.075 38.2734H115.989C115.26 38.2734 114.603 38.3906 114.017 38.625C113.444 38.8594 112.988 39.1849 112.65 39.6016C112.311 40.0312 112.142 40.526 112.142 41.0859C112.142 41.9062 112.532 42.5508 113.314 43.0195C114.108 43.4883 115.215 43.7227 116.634 43.7227ZM117.591 27.1602C118.711 27.1602 119.531 26.8151 120.052 26.125C120.573 25.4349 120.833 24.4974 120.833 23.3125C120.833 21.9974 120.56 21.0143 120.013 20.3633C119.479 19.6992 118.672 19.3672 117.591 19.3672C116.497 19.3672 115.677 19.6992 115.13 20.3633C114.583 21.0143 114.31 21.9974 114.31 23.3125C114.31 24.4974 114.577 25.4349 115.11 26.125C115.657 26.8151 116.484 27.1602 117.591 27.1602ZM143.214 15.7539C145.233 15.7539 146.971 16.1445 148.429 16.9258C149.888 17.694 151.014 18.8138 151.808 20.2852C152.602 21.7565 153 23.5534 153 25.6758V28.5664H138.917C138.983 30.2461 139.484 31.5677 140.421 32.5312C141.372 33.4818 142.687 33.957 144.367 33.957C145.76 33.957 147.036 33.8138 148.195 33.5273C149.354 33.2409 150.545 32.8112 151.769 32.2383V36.8477C150.688 37.3815 149.556 37.7721 148.371 38.0195C147.199 38.2669 145.773 38.3906 144.093 38.3906C141.906 38.3906 139.966 37.987 138.273 37.1797C136.593 36.3724 135.272 35.1419 134.308 33.4883C133.358 31.8346 132.882 29.7513 132.882 27.2383C132.882 24.6862 133.312 22.5638 134.171 20.8711C135.044 19.1654 136.255 17.8893 137.804 17.043C139.354 16.1836 141.157 15.7539 143.214 15.7539ZM143.253 19.9922C142.095 19.9922 141.131 20.3633 140.363 21.1055C139.608 21.8477 139.171 23.013 139.054 24.6016H147.414C147.401 23.7161 147.238 22.9284 146.925 22.2383C146.626 21.5482 146.17 21.0013 145.558 20.5977C144.959 20.194 144.191 19.9922 143.253 19.9922ZM171.514 20.6367H166.357V38H160.4V20.6367H157.119V17.7656L160.4 16.1641V14.5625C160.4 12.7005 160.713 11.2552 161.338 10.2266C161.976 9.1849 162.868 8.45573 164.014 8.03906C165.172 7.60938 166.54 7.39453 168.115 7.39453C169.274 7.39453 170.329 7.49219 171.279 7.6875C172.23 7.86979 173.004 8.07812 173.603 8.3125L172.08 12.6875C171.624 12.5443 171.129 12.4141 170.596 12.2969C170.062 12.1797 169.45 12.1211 168.76 12.1211C167.926 12.1211 167.314 12.375 166.924 12.8828C166.546 13.3776 166.357 14.0156 166.357 14.7969V16.1641H171.514V20.6367ZM180.889 16.1641V38H174.932V16.1641H180.889ZM177.92 7.60938C178.805 7.60938 179.567 7.81771 180.205 8.23438C180.843 8.63802 181.162 9.39974 181.162 10.5195C181.162 11.6263 180.843 12.3945 180.205 12.8242C179.567 13.2409 178.805 13.4492 177.92 13.4492C177.021 13.4492 176.253 13.2409 175.615 12.8242C174.99 12.3945 174.678 11.6263 174.678 10.5195C174.678 9.39974 174.99 8.63802 175.615 8.23438C176.253 7.81771 177.021 7.60938 177.92 7.60938ZM197.938 33.6445C198.589 33.6445 199.22 33.5794 199.832 33.4492C200.457 33.319 201.076 33.1562 201.688 32.9609V37.3945C201.05 37.681 200.255 37.9154 199.305 38.0977C198.367 38.293 197.339 38.3906 196.219 38.3906C194.917 38.3906 193.745 38.1823 192.703 37.7656C191.675 37.3359 190.861 36.6003 190.262 35.5586C189.676 34.5039 189.383 33.0391 189.383 31.1641V20.6367H186.532V18.1172L189.813 16.125L191.532 11.5156H195.34V16.1641H201.453V20.6367H195.34V31.1641C195.34 31.9974 195.575 32.6224 196.043 33.0391C196.525 33.4427 197.157 33.6445 197.938 33.6445Z" fill="white"/>
</svg>
