<svg width="60" height="60" viewBox="0 0 60 60" fill="none" xmlns="http://www.w3.org/2000/svg">
<g filter="url(#filter0_d_3_471)">
<circle cx="30.1429" cy="26.3095" r="26.3095" fill="#FFF7E9"/>
</g>
<path fill-rule="evenodd" clip-rule="evenodd" d="M36.0677 26.0002L47.8319 16.3689C47.8805 16.5254 47.905 16.6871 47.9048 16.8495V35.1512C47.905 35.3136 47.8805 35.4753 47.8319 35.6318L36.0677 26.0002ZM13.1085 36.8206C13.3889 36.9389 13.6961 37.0002 14.0072 37H45.8021C46.1659 37 46.5234 36.9163 46.8389 36.7568L34.8847 26.9691L32.7159 28.7441C31.972 29.3396 30.9972 29.6618 29.9916 29.6446C28.981 29.6419 28.0075 29.3082 27.2611 28.709L25.1383 26.9705L13.1085 36.8206ZM12.0247 16.2319C11.9447 16.4302 11.9039 16.639 11.9048 16.8493V35.1509C11.9039 35.3612 11.9447 35.57 12.0247 35.7682L23.9554 26L12.0247 16.2319ZM45.8004 15.0006L14.0069 15.0009C13.6958 15.0006 13.3886 15.062 13.1082 15.1803L25.6824 25.4768L25.6877 25.481L28.3596 27.6689C28.8096 28.0289 29.3956 28.2284 30.0039 28.2291C30.5979 28.2421 31.1751 28.0551 31.6174 27.706L34.3373 25.4807L34.3412 25.4773L46.839 15.2429C46.5234 15.0837 46.166 15 45.8021 15L45.8004 15.0006Z" fill="#FF6400"/>
<defs>
<filter id="filter0_d_3_471" x="0.595248" y="0" width="59.0952" height="59.0953" filterUnits="userSpaceOnUse" color-interpolation-filters="sRGB">
<feFlood flood-opacity="0" result="BackgroundImageFix"/>
<feColorMatrix in="SourceAlpha" type="matrix" values="0 0 0 0 0 0 0 0 0 0 0 0 0 0 0 0 0 0 127 0" result="hardAlpha"/>
<feOffset dy="3.2381"/>
<feGaussianBlur stdDeviation="1.61905"/>
<feComposite in2="hardAlpha" operator="out"/>
<feColorMatrix type="matrix" values="0 0 0 0 0 0 0 0 0 0 0 0 0 0 0 0 0 0 0.25 0"/>
<feBlend mode="normal" in2="BackgroundImageFix" result="effect1_dropShadow_3_471"/>
<feBlend mode="normal" in="SourceGraphic" in2="effect1_dropShadow_3_471" result="shape"/>
</filter>
</defs>
</svg>
