<svg width="60" height="60" viewBox="0 0 60 60" fill="none" xmlns="http://www.w3.org/2000/svg">
<g filter="url(#filter0_d_3_462)">
<circle cx="29.8571" cy="26.3095" r="26.3095" fill="#FFF7E9"/>
</g>
<path d="M49.6905 26.7649C49.6905 15.5655 40.6238 6.47607 29.4524 6.47607C18.2809 6.47607 9.21428 15.5655 9.21428 26.7649C9.21428 36.5847 16.1762 44.7611 25.4048 46.6479V32.8515H21.3571V26.7649H25.4048V21.6927C25.4048 17.7769 28.5821 14.5916 32.4881 14.5916H37.5476V20.6782H33.5C32.3869 20.6782 31.4762 21.5912 31.4762 22.7071V26.7649H37.5476V32.8515H31.4762V46.9523C41.6964 45.9378 49.6905 37.2948 49.6905 26.7649Z" fill="#FF6400"/>
<defs>
<filter id="filter0_d_3_462" x="0.309512" y="0" width="59.0952" height="59.0953" filterUnits="userSpaceOnUse" color-interpolation-filters="sRGB">
<feFlood flood-opacity="0" result="BackgroundImageFix"/>
<feColorMatrix in="SourceAlpha" type="matrix" values="0 0 0 0 0 0 0 0 0 0 0 0 0 0 0 0 0 0 127 0" result="hardAlpha"/>
<feOffset dy="3.2381"/>
<feGaussianBlur stdDeviation="1.61905"/>
<feComposite in2="hardAlpha" operator="out"/>
<feColorMatrix type="matrix" values="0 0 0 0 0 0 0 0 0 0 0 0 0 0 0 0 0 0 0.25 0"/>
<feBlend mode="normal" in2="BackgroundImageFix" result="effect1_dropShadow_3_462"/>
<feBlend mode="normal" in="SourceGraphic" in2="effect1_dropShadow_3_462" result="shape"/>
</filter>
</defs>
</svg>
