<svg width="60" height="60" viewBox="0 0 60 60" fill="none" xmlns="http://www.w3.org/2000/svg">
<g filter="url(#filter0_d_3_465)">
<circle cx="29.9524" cy="26.3095" r="26.3095" fill="#FFF7E9"/>
</g>
<path d="M21.8571 8.09521C16.2694 8.09521 11.7381 12.6265 11.7381 18.2143V34.4047C11.7381 39.9925 16.2694 44.5238 21.8571 44.5238H38.0476C43.6353 44.5238 48.1666 39.9925 48.1666 34.4047V18.2143C48.1666 12.6265 43.6353 8.09521 38.0476 8.09521H21.8571ZM42.0952 12.1428C43.2124 12.1428 44.119 13.0495 44.119 14.1666C44.119 15.2838 43.2124 16.1905 42.0952 16.1905C40.9781 16.1905 40.0714 15.2838 40.0714 14.1666C40.0714 13.0495 40.9781 12.1428 42.0952 12.1428ZM29.9524 16.1905C35.5401 16.1905 40.0714 20.7218 40.0714 26.3095C40.0714 31.8972 35.5401 36.4285 29.9524 36.4285C24.3646 36.4285 19.8333 31.8972 19.8333 26.3095C19.8333 20.7218 24.3646 16.1905 29.9524 16.1905ZM29.9524 20.2381C28.3421 20.2381 26.7978 20.8777 25.6592 22.0164C24.5206 23.155 23.8809 24.6993 23.8809 26.3095C23.8809 27.9197 24.5206 29.464 25.6592 30.6026C26.7978 31.7413 28.3421 32.3809 29.9524 32.3809C31.5626 32.3809 33.1069 31.7413 34.2455 30.6026C35.3841 29.464 36.0238 27.9197 36.0238 26.3095C36.0238 24.6993 35.3841 23.155 34.2455 22.0164C33.1069 20.8777 31.5626 20.2381 29.9524 20.2381Z" fill="#FF6400"/>
<defs>
<filter id="filter0_d_3_465" x="0.40475" y="0" width="59.0952" height="59.0953" filterUnits="userSpaceOnUse" color-interpolation-filters="sRGB">
<feFlood flood-opacity="0" result="BackgroundImageFix"/>
<feColorMatrix in="SourceAlpha" type="matrix" values="0 0 0 0 0 0 0 0 0 0 0 0 0 0 0 0 0 0 127 0" result="hardAlpha"/>
<feOffset dy="3.2381"/>
<feGaussianBlur stdDeviation="1.61905"/>
<feComposite in2="hardAlpha" operator="out"/>
<feColorMatrix type="matrix" values="0 0 0 0 0 0 0 0 0 0 0 0 0 0 0 0 0 0 0.25 0"/>
<feBlend mode="normal" in2="BackgroundImageFix" result="effect1_dropShadow_3_465"/>
<feBlend mode="normal" in="SourceGraphic" in2="effect1_dropShadow_3_465" result="shape"/>
</filter>
</defs>
</svg>
