<svg width="38" height="38" viewBox="0 0 38 38" fill="none" xmlns="http://www.w3.org/2000/svg">
<path d="M19 36.6426C28.744 36.6426 36.6428 28.7438 36.6428 18.9998C36.6428 9.25591 28.744 1.35693 19 1.35693C9.25609 1.35693 1.35712 9.25591 1.35712 18.9998C1.35712 28.7438 9.25609 36.6426 19 36.6426Z" fill="#F6FFF8" stroke="white" stroke-linecap="round" stroke-linejoin="round"/>
<path d="M18.9999 21.714C22.7476 21.714 25.7857 18.6759 25.7857 14.9283C25.7857 11.1807 22.7476 8.14258 18.9999 8.14258C15.2523 8.14258 12.2142 11.1807 12.2142 14.9283C12.2142 18.6759 15.2523 21.714 18.9999 21.714Z" fill="#FD7B03" stroke="#FD7B03" stroke-linecap="round" stroke-linejoin="round"/>
<path d="M7.40991 32.2997C8.62113 30.3115 10.3235 28.6683 12.3532 27.5283C14.3829 26.3879 16.6718 25.7891 18.9999 25.7891C21.328 25.7891 23.6169 26.3879 25.6466 27.5283C27.6765 28.6683 29.3786 30.3115 30.59 32.2997" fill="#FD7B03"/>
<path d="M7.40991 32.2997C8.62113 30.3115 10.3235 28.6683 12.3532 27.5283C14.3829 26.3879 16.6718 25.7891 18.9999 25.7891C21.328 25.7891 23.6169 26.3879 25.6466 27.5283C27.6765 28.6683 29.3786 30.3115 30.59 32.2997" stroke="#F6FFF8" stroke-linecap="round" stroke-linejoin="round"/>
<path d="M7.99994 32C9.1495 33.2215 10.7652 34.2311 12.6916 34.9315C14.618 35.6321 16.7904 36 18.9999 36C21.2095 36 23.3818 35.6321 25.3083 34.9315C27.2347 34.2311 28.8502 33.2215 29.9999 32" fill="#FD7B03"/>
<path d="M7.99994 32C9.1495 33.2215 10.7652 34.2311 12.6916 34.9315C14.618 35.6321 16.7904 36 18.9999 36C21.2095 36 23.3818 35.6321 25.3083 34.9315C27.2347 34.2311 28.8502 33.2215 29.9999 32" stroke="#F6FFF8" stroke-linecap="round" stroke-linejoin="round"/>
</svg>
